<?xml version="1.0" encoding="utf-8"?>
<!-- Generator: Adobe Illustrator 24.1.2, SVG Export Plug-In . SVG Version: 6.00 Build 0)  -->
<svg version="1.1" id="레이어_1" xmlns="http://www.w3.org/2000/svg" xmlns:xlink="http://www.w3.org/1999/xlink" x="0px"
	 y="0px" viewBox="0 0 150.6 235" style="enable-background:new 0 0 150.6 235;" xml:space="preserve">
<style type="text/css">
	.st0{fill:#10112F;}
	.st1{fill:#EC1B23;}
	.st2{fill:#FFFFFF;}
	.st3{display:none;fill:#EC1B23;}
	.st4{display:none;}
	.st5{display:inline;fill:#FFFFFF;}
	.st6{display:inline;fill:#EC1B23;}
	.st7{display:inline;fill:#131230;}
</style>
<g>
	<polygon class="st0" points="0,12.7 0,64.6 19.7,64.6 19.7,170.3 0,170.3 0,222.3 115.4,222.3 150.6,187.1 150.6,47.9 115.4,12.7 	
		"/>
	<g>
		<polygon class="st1" points="13,25.1 13,51.7 32,51.7 32,182.4 13,182.4 13,209.1 109.4,209.1 137,181.5 137,53 108.9,25.1 		"/>
		<rect x="59" y="52" class="st0" width="52.4" height="131.5"/>
		<rect x="71.7" y="64.7" class="st2" width="26.6" height="105.7"/>
	</g>
</g>
<polygon class="st3" points="-0.4,12.8 -0.4,64.7 19.2,64.7 19.2,170.3 -0.4,170.3 -0.4,222.3 114.8,222.3 150,187.1 150,48 
	114.8,12.8 "/>
<g class="st4">
	<polygon class="st5" points="12.5,25.2 12.5,51.8 31.5,51.8 31.5,182.4 12.5,182.4 12.5,209.1 108.9,209.1 136.5,181.5 136.5,53.1 
		108.4,25.2 	"/>
	<rect x="58.5" y="52.1" class="st6" width="52.4" height="131.5"/>
	<rect x="71.2" y="64.8" class="st7" width="26.6" height="105.7"/>
</g>
</svg>
