<?xml version="1.0" encoding="utf-8"?>
<!-- Generator: Adobe Illustrator 24.1.2, SVG Export Plug-In . SVG Version: 6.00 Build 0)  -->
<svg version="1.1" id="레이어_1" xmlns="http://www.w3.org/2000/svg" xmlns:xlink="http://www.w3.org/1999/xlink" x="0px"
	 y="0px" viewBox="0 0 276 235" style="enable-background:new 0 0 276 235;" xml:space="preserve">
<style type="text/css">
	.st0{display:none;}
	.st1{display:inline;fill:#10112F;}
	.st2{display:inline;}
	.st3{fill:#EC1B23;}
	.st4{fill:#10112F;}
	.st5{fill:#FFFFFF;}
	.st6{fill:#131230;}
</style>
<g class="st0">
	<polygon class="st1" points="63.2,12.7 63.2,64.6 82.9,64.6 82.9,170.3 63.2,170.3 63.2,222.3 178.6,222.3 213.8,187.1 213.8,47.9 
		178.6,12.7 	"/>
	<g class="st2">
		<polygon class="st3" points="76.2,25.1 76.2,51.7 95.2,51.7 95.2,182.4 76.2,182.4 76.2,209.1 172.6,209.1 200.2,181.5 200.2,53 
			172.1,25.1 		"/>
		<rect x="122.2" y="52" class="st4" width="52.4" height="131.5"/>
		<rect x="134.9" y="64.7" class="st5" width="26.6" height="105.7"/>
	</g>
</g>
<polygon class="st3" points="62.8,12.8 62.8,64.7 82.4,64.7 82.4,170.3 62.8,170.3 62.8,222.3 178,222.3 213.2,187.1 213.2,48 
	178,12.8 "/>
<g>
	<polygon class="st5" points="75.7,25.2 75.7,51.8 94.7,51.8 94.7,182.4 75.7,182.4 75.7,209.1 172.1,209.1 199.7,181.5 199.7,53.1 
		171.6,25.2 	"/>
	<rect x="121.7" y="52.1" class="st3" width="52.4" height="131.5"/>
	<rect x="134.4" y="64.8" class="st6" width="26.6" height="105.7"/>
</g>
</svg>
