<?xml version="1.0" encoding="utf-8"?>
<!-- Generator: Adobe Illustrator 24.1.2, SVG Export Plug-In . SVG Version: 6.00 Build 0)  -->
<svg version="1.1" id="레이어_1" xmlns="http://www.w3.org/2000/svg" xmlns:xlink="http://www.w3.org/1999/xlink" x="0px"
	 y="0px" viewBox="0 0 276 235" style="enable-background:new 0 0 276 235;" xml:space="preserve">
<style type="text/css">
	.st0{fill:#FFFFFF;}
	.st1{fill:#110F29;}
	.st2{fill:none;}
	.st3{fill:#C6C5C5;}
	.st4{fill:#EC1B23;}
</style>
<ellipse transform="matrix(1.561942e-02 -0.9999 0.9999 1.561942e-02 19.3449 254.1002)" class="st0" cx="138.7" cy="117.2" rx="112.7" ry="112.7"/>
<path class="st1" d="M248.3,117.1c0,60.5-49,109.5-109.6,109.5c-60.5,0-109.5-49-109.5-109.5c0-60.5,49-109.6,109.5-109.6
	C199.2,7.6,248.3,56.6,248.3,117.1z"/>
<path class="st0" d="M224.4,117c0,47.2-38.3,85.5-85.5,85.5S53.3,164.3,53.3,117c0-47.2,38.3-85.5,85.5-85.5S224.4,69.8,224.4,117z"
	/>
<path class="st2" d="M138.8,36.3c-35,0-64.8,22.3-76,53.4h152C203.7,58.6,173.9,36.3,138.8,36.3z"/>
<g>
	<g>
		<path class="st3" d="M117.4,116.3c0-0.2,0-0.4,0-0.5l6.1,3.4l1-1.8l-7.2-4c-0.1-2.7-0.2-5.4-0.5-8l6.5,3.2l0.9-1.8l-7.6-3.7
			c-0.3-2.6-0.7-5.2-1.2-7.8l7,2.3l0.6-2l-8.1-2.6c-0.5-2.3-1.1-4.6-1.8-6.9l6.8,1.4l0.4-2l-7.9-1.6c-0.6-2-1.3-3.9-2-5.8l7.1,1.5
			l0.4-2l-8.4-1.7c-0.9-2.3-1.9-4.5-2.9-6.7l7.2,0.8l0.2-2l-8.5-0.9c-1.2-2.3-2.4-4.5-3.7-6.7l7,0l0-2.1l-8.3,0
			c-1.4-2.1-2.8-4.2-4.3-6.3l6.7-0.6l-0.2-2l-7.9,0.7c-0.7-0.9-1.4-1.8-2.1-2.7l-2.6,1.4c0.8,0.9,1.5,1.9,2.2,2.8l-2.9,7.9l1.9,0.7
			l2.4-6.6c1.5,2.1,3,4.2,4.3,6.3L94.7,67l1.9,0.9l2.8-6.1c1.3,2.2,2.5,4.4,3.7,6.7l-4,6.7l1.8,1.1l3.3-5.5c1,2.1,1.9,4.2,2.8,6.4
			l-4.6,6.2l1.7,1.2l3.9-5.2c0.7,1.8,1.3,3.5,1.8,5.3l-5,6.7l1.7,1.2l4-5.4c0.6,2.2,1.2,4.5,1.7,6.8l-5.3,5.7l1.5,1.4l4.3-4.6
			c0.5,2.4,0.8,4.8,1.1,7.3l-6.1,4.9l1.3,1.6l5.1-4.1c0.2,2.5,0.4,5,0.4,7.6l-6.6,4.7l1.2,1.7l5.4-3.9c0,0.1,0,0.1,0,0.2
			c0,2.1-0.1,4.1-0.2,6.1l-6.9,4l1,1.8l5.7-3.3c-0.2,2-0.4,4-0.6,5.9l-7.3,3.7l0.9,1.8l6-3.1c-0.3,2.1-0.7,4.1-1.2,6.2l-7.3,3.3
			l0.8,1.9l5.8-2.6c-0.5,1.9-1,3.8-1.6,5.7l-7.4,2.9l0.8,1.9l5.9-2.3c-0.7,2-1.4,4.1-2.2,6l-7.6,2.1l0.6,2l6-1.7
			c-0.8,1.8-1.6,3.5-2.5,5.3l-7.7,1.4l0.4,2l6.2-1.1c-0.9,1.6-1.8,3.2-2.7,4.8l-7.9,0.6l0.1,2l6.5-0.5c-1,1.5-2,3-3,4.4l-7.6,0.1
			l0,2.1l6-0.1c-1.1,1.4-2.2,2.8-3.3,4.2l1.6,2.7c1.6-1.9,3.2-4,4.7-6l3.3,6.8l1.8-0.9l-3.8-7.8c1-1.4,2-2.9,2.9-4.4l3.5,6.3l1.8-1
			l-4.1-7.3c1.1-1.8,2.1-3.6,3.1-5.4l4.2,6l1.7-1.2l-4.9-6.9c0.9-1.9,1.9-3.8,2.7-5.8l4.8,5.6l1.6-1.3l-5.5-6.4
			c0.9-2.2,1.7-4.3,2.4-6.6l5.3,5l1.4-1.5l-6-5.7c0.6-2,1.2-4.1,1.7-6.2l5.5,4.8l1.3-1.6l-6.3-5.5c0.4-2.1,0.8-4.1,1.2-6.2l5.5,4.3
			l1.3-1.6l-6.4-5c0.3-2.1,0.5-4.3,0.7-6.4l5.9,4.1l1.2-1.7l-6.9-4.8C117.3,120.4,117.4,118.4,117.4,116.3z"/>
	</g>
</g>
<g>
	<g>
		<path class="st3" d="M190.4,177.9l-7.6-0.1c-1-1.4-2-2.9-3-4.4l6.5,0.5l0.1-2l-7.9-0.6c-1-1.6-1.9-3.2-2.7-4.8l6.2,1.1l0.4-2
			l-7.7-1.4c-0.9-1.7-1.7-3.5-2.5-5.3l6,1.7l0.6-2l-7.6-2.1c-0.8-2-1.5-4-2.2-6l5.8,2.3l0.8-1.9l-7.4-2.9c-0.6-1.9-1.1-3.8-1.6-5.7
			l5.8,2.6l0.8-1.9l-7.3-3.3c-0.5-2-0.8-4.1-1.2-6.2l6,3.1l0.9-1.8l-7.3-3.7c-0.3-2-0.5-3.9-0.6-5.9l5.7,3.3l1-1.8l-6.9-4
			c-0.1-2-0.2-4.1-0.2-6.1c0-0.1,0-0.1,0-0.2l5.4,3.9l1.2-1.7l-6.6-4.7c0.1-2.5,0.2-5.1,0.4-7.6l5.1,4.1l1.3-1.6l-6.1-4.9
			c0.3-2.4,0.7-4.9,1.1-7.3l4.3,4.6l1.5-1.4l-5.3-5.7c0.5-2.3,1.1-4.6,1.7-6.8l4,5.4l1.7-1.2l-4.9-6.7c0.6-1.8,1.2-3.6,1.8-5.3
			l3.9,5.2l1.7-1.2l-4.6-6.2c0.9-2.2,1.8-4.3,2.8-6.4l3.3,5.5l1.8-1.1l-4-6.7c1.1-2.3,2.4-4.5,3.7-6.7l2.8,6.1L183,67l-3.4-7.3
			c1.4-2.2,2.8-4.3,4.3-6.3l2.4,6.6l1.9-0.7l-2.9-7.9c0.7-1,1.5-1.9,2.2-2.8l-2.7-1.4c-0.7,0.9-1.4,1.8-2.1,2.7l-7.9-0.7l-0.2,2
			l6.7,0.6c-1.5,2-2.9,4.1-4.3,6.3l-8.3,0l0,2.1l7,0c-1.3,2.2-2.6,4.4-3.7,6.7l-8.5,0.9l0.2,2l7.2-0.8c-1,2.2-2,4.4-2.9,6.7
			l-8.4,1.7l0.4,2l7.1-1.5c-0.7,1.9-1.4,3.9-2,5.8l-7.9,1.6l0.4,2l6.8-1.4c-0.7,2.3-1.2,4.5-1.8,6.9l-8.1,2.6l0.6,2l7-2.3
			c-0.5,2.6-0.9,5.2-1.2,7.8l-7.6,3.7l0.9,1.8l6.5-3.2c-0.3,2.6-0.4,5.3-0.5,8l-7.2,4l1,1.8l6.1-3.4c0,0.2,0,0.4,0,0.5
			c0,2,0.1,4,0.2,6l-6.9,4.8l1.2,1.7l5.9-4.1c0.2,2.2,0.4,4.3,0.7,6.4l-6.4,5l1.3,1.6l5.5-4.3c0.3,2.1,0.7,4.2,1.2,6.2l-6.3,5.5
			l1.3,1.6l5.5-4.8c0.5,2.1,1.1,4.1,1.7,6.2l-6,5.7l1.4,1.5l5.3-5c0.7,2.2,1.5,4.4,2.4,6.6l-5.5,6.4l1.6,1.3l4.8-5.6
			c0.8,2,1.7,3.9,2.7,5.8l-4.9,6.9l1.7,1.2l4.2-6c1,1.8,2,3.7,3.1,5.4l-4.1,7.3l1.8,1l3.5-6.3c0.9,1.5,1.9,3,2.9,4.4l-3.8,7.8
			l1.8,0.9l3.3-6.8c1.5,2.1,3,4.1,4.7,6l1.7-2.7c-1.1-1.4-2.2-2.8-3.3-4.2l6,0.1L190.4,177.9z"/>
	</g>
</g>
<g>
	<path d="M91.3,58.9l8.3,0c6.6,0,5.8,3.1,4.6,6.5c-1.2,3.5-2.7,6.6-9.2,6.6l-8.3,0L91.3,58.9z M93.2,69.5l1.1,0
		c2.2,0,2.7-0.5,3.9-4.1c1.3-3.5,1.2-4.1-1-4.1l-1.1,0L93.2,69.5z"/>
	<path d="M115.2,58.6c5.8,0,7.1,1.9,5.4,6.8c-1.7,4.9-4.4,6.8-10.2,6.8c-5.8,0-7.1-1.9-5.4-6.8C106.7,60.5,109.4,58.6,115.2,58.6
		 M111.2,70c1.7,0,2.3-1,3.5-4.5c1.3-3.5,1.4-4.5-0.3-4.5c-1.7,0-2.3,1-3.5,4.5C109.6,69,109.5,69.9,111.2,70"/>
	<path d="M131.7,58.6c5.8,0,7.1,1.9,5.4,6.8c-1.7,4.9-4.4,6.8-10.2,6.8c-5.8,0-7.1-1.9-5.4-6.8C123.2,60.5,125.9,58.6,131.7,58.6
		 M127.7,70c1.7,0,2.3-0.9,3.5-4.5c1.3-3.5,1.4-4.5-0.4-4.5c-1.7,0-2.2,1-3.5,4.5C126.1,69,125.9,70,127.7,70"/>
	<path d="M147.6,62.7l0.1-0.3c0.3-0.8,0-1.4-1.1-1.4c-1.2,0-2,0.6-2.2,1.1c-0.9,2.6,8.8,1.3,7.1,6.1c-1,2.8-4.2,4-9.2,4
		c-4.7,0-7-1-6-3.7l0.2-0.5l5.5,0l-0.1,0.3c-0.4,1.1,0.2,1.5,1.3,1.5c1.2,0,2-0.5,2.3-1.3c0.9-2.6-8.5-1.3-6.8-6
		c0.9-2.6,3.8-4.1,8.6-4.1c5,0,6.6,1.2,5.6,4L147.6,62.7z"/>
	<path d="M159.9,58.9l7.2,0l0.7,13.1l-6.1,0l0.2-2.3l-4.5,0L156,72l-6.1,0L159.9,58.9z M162.5,61.6L162.5,61.6l-3.6,5.6h3.2
		L162.5,61.6z"/>
	<polygon points="173.1,58.9 179.4,58.9 180.2,67 180.3,67 183.2,58.9 188.5,58.9 183.9,72 177.6,72 176.7,63.9 176.6,63.9 
		173.7,72 168.4,72 	"/>
</g>
<g>
	<g>
		<polygon points="120.1,170.2 120.1,175.6 117.2,178.5 111.3,178.5 108.6,175.7 108.6,172.8 113.3,172.8 113.3,174.2 115.3,174.2 
			115.3,171.9 110.7,171.9 108.5,169.7 108.5,165.1 111.3,162.3 117.3,162.3 119.9,164.9 119.9,167.6 115.4,167.6 115.4,166.5 
			113.3,166.5 113.3,168.1 118,168.1 		"/>
		<polygon points="118.7,170.8 117.2,169.4 112.4,169.4 111.9,168.8 111.9,166 112.8,165.2 115.9,165.2 116.7,166 116.7,166.3 
			118.7,166.3 118.7,165.7 116.7,163.7 112,163.7 110,165.7 110,169.1 111.4,170.6 116.2,170.6 116.7,171.2 116.7,174.7 
			115.7,175.6 112.8,175.6 111.9,174.7 111.9,174 110,174 110,175 112,177.1 116.5,177.1 118.7,175 		"/>
	</g>
	<g>
		<polygon points="132.8,162.3 132.8,167.5 128.5,167.5 128.5,166.5 126.4,166.5 126.4,168.2 130.2,168.2 130.2,172.4 126.4,172.4 
			126.4,174.2 128.5,174.2 128.5,173.1 132.8,173.1 132.8,178.5 120.4,178.5 120.4,174.2 121.5,174.2 121.5,166.5 120.4,166.5 
			120.4,162.3 		"/>
		<polygon points="131.4,163.7 121.9,163.7 121.9,165.2 123,165.2 123,175.6 121.9,175.6 121.9,177.1 131.4,177.1 131.4,174.5 
			129.9,174.5 129.9,175.6 124.9,175.6 124.9,170.9 128.8,170.9 128.8,169.6 124.9,169.6 124.9,165.2 129.9,165.2 129.9,166.1 
			131.4,166.1 		"/>
	</g>
	<g>
		<polygon points="144.9,165.2 144.9,175.6 142.1,178.5 135.9,178.5 133.2,175.6 133.2,165.1 136,162.3 142.1,162.3 		"/>
		<polygon points="143.5,165.7 141.4,163.7 136.7,163.7 134.6,165.7 134.6,175 136.5,177.1 141.4,177.1 143.5,175.1 		"/>
		<polygon points="141.6,166.1 141.6,174.7 140.6,175.6 137.4,175.6 136.5,174.7 136.5,166.1 137.5,165.2 140.6,165.2 		"/>
		<rect x="137.9" y="166.5" class="st0" width="2.2" height="7.7"/>
	</g>
	<g>
		<polygon points="159.3,162.3 159.3,166.5 158,166.5 158,175.6 155.2,178.5 149.2,178.5 146.4,175.6 146.4,166.5 145.2,166.5 
			145.2,162.3 151.9,162.3 151.9,166.4 151.3,166.4 151.3,174.2 153.2,174.2 153.2,166.4 152.6,166.4 152.6,162.3 		"/>
		<polygon points="157.9,163.7 153.9,163.7 153.9,165.2 154.7,165.2 154.7,174.7 153.7,175.6 150.7,175.6 149.9,174.7 149.9,165.2 
			150.6,165.2 150.6,163.7 146.6,163.7 146.6,165.2 147.9,165.2 147.9,175 149.9,177.1 154.6,177.1 156.6,175.1 156.6,165.2 
			157.9,165.2 		"/>
	</g>
	<g>
		<polygon points="167.2,162.3 167.2,166.5 165.9,166.5 165.9,174.2 167.7,174.2 167.7,171.6 172,171.6 172,178.5 160,178.5 
			160,174.2 161.1,174.2 161.1,166.5 160,166.5 160,162.3 		"/>
		<polygon points="165.8,163.7 161.4,163.7 161.4,165.2 162.5,165.2 162.5,175.6 161.4,175.6 161.4,177.1 170.6,177.1 170.6,173 
			169.1,173 169.1,175.6 164.5,175.6 164.5,165.2 165.8,165.2 		"/>
	</g>
</g>
<g>
	<path class="st4" d="M138.8,36.3c30.8,0,57.6,17.3,71.2,42.7h5.3c-14-28.1-43-47.4-76.6-47.4c-33.5,0-62.5,19.3-76.6,47.4h5.3
		C81.2,53.6,108,36.3,138.8,36.3z"/>
	<path class="st4" d="M138.8,197.8c-31,0-58-17.5-71.5-43.2H62c13.9,28.4,43.1,47.9,76.8,47.9c33.7,0,62.9-19.6,76.8-47.9h-5.3
		C196.8,180.3,169.9,197.8,138.8,197.8z"/>
</g>
<g>
	<g>
		<g>
			<polygon class="st0" points="57,92.6 57,110.2 54.1,113.5 57,116.6 57,135.2 45,146.8 5.9,146.8 5.9,128.1 10.4,128.1 
				10.4,100.5 6,100.5 6,81.8 46.2,81.8 			"/>
		</g>
		<g>
			<polygon class="st0" points="106.8,81.8 106.8,103.1 87.8,103.1 87.8,99.4 81.8,99.4 81.8,104.1 96.6,104.1 96.6,122 81.8,122 
				81.8,127.2 87.8,127.2 87.8,123.6 106.7,123.6 106.8,145.9 56.6,145.9 56.6,127.5 60.6,127.5 60.6,99.3 56.9,99.3 56.9,81.8 			
				"/>
		</g>
		<g>
			<polygon class="st0" points="146.4,81.8 160.6,128.1 166.4,128.1 166.4,146.8 138,146.8 138,129.1 141.9,129.1 141.3,127.1 
				130.8,127.1 130.4,129.1 133.8,129.1 133.8,146.8 106.6,146.8 106.7,123.6 111.8,128.9 127.3,81.8 			"/>
		</g>
		<g>
			<polygon class="st0" points="222,128.1 222,146.8 194.6,146.8 194.6,129.3 195.5,129.3 193,123.4 190.4,123.4 190.4,129.3 
				194.1,129.3 194.1,146.8 165.8,146.8 165.8,128.1 170.7,128.1 170.7,100.5 166.3,100.5 166.3,81.8 206,81.8 217,93 216.8,112.1 
				211.6,117.5 216.3,128.1 			"/>
		</g>
		<g>
			<polygon class="st0" points="267.7,112.9 267.5,135.3 255.6,146.8 232.3,146.8 221.3,135.9 221.3,122.5 241.2,122.5 241.2,128.2 
				246.9,128.2 246.9,121.5 229.8,121.5 220.8,112.5 220.8,93.3 232.4,81.8 256.7,81.8 266.7,92 266.7,104.7 247.2,104.7 
				247.2,100.4 241.1,100.4 241.1,104.3 260,104.7 			"/>
		</g>
	</g>
	<g>
		<g>
			<polygon class="st0" points="62.1,98.7 62.1,115.4 62,118.8 62.1,121.8 61,140.3 49.9,151.3 10.3,151.3 6,146.7 15.6,133.3 
				15.6,105.7 11,105.7 11,87 50.8,87 			"/>
		</g>
		<g>
			<polygon class="st0" points="111.6,86.9 111.6,108.7 92.6,108.7 92.6,105.2 86.5,105.2 86.5,107.8 101.5,107.8 101.5,127.8 
				86.5,127.8 86.5,133 92.6,133 92.6,128.7 111.6,128.8 111.5,151.3 61.8,151.3 55.9,145.2 65.3,133.3 65.3,105.1 61.3,105.1 
				106.7,81.9 			"/>
		</g>
		<g>
			<polygon class="st0" points="151.2,86.8 165.6,133.6 171.4,133.6 171.4,151.3 131.9,151.3 131.9,134.3 147,134.3 146.4,132.3 
				135.8,132.3 135.4,134.3 138.9,134.3 138.9,151.3 111.5,151.3 111.5,133.6 116.9,133.6 146.4,81.8 			"/>
		</g>
		<g>
			<polygon class="st0" points="226.7,133.8 226.7,151.3 193.8,151.3 199.7,134.7 200.6,134.7 198.1,128.8 195.4,128.8 195.4,134.7 
				199.2,134.7 199.2,151.3 170.9,151.3 170.9,133.8 175.7,133.8 175.7,105.8 171.1,105.8 171.1,87.3 211.4,87.3 221.6,97.6 
				221.6,116.4 216.2,121.8 221.4,133.1 			"/>
		</g>
		<g>
			<polygon class="st0" points="272.3,117.6 272.3,139.6 260.4,151.3 236.8,151.3 226.6,141.1 226.2,128 246.3,128 246.3,133.4 
				252,133.4 252,126.7 234.9,126.7 226.2,117.7 225.6,98.2 237.1,86.8 261.4,86.5 271.5,96.9 271.5,109 252.3,109 252.3,105.5 
				246.2,105.5 246.2,109.4 264.4,109.4 			"/>
		</g>
	</g>
	<g>
		<polygon class="st0" points="271.1,118 271.1,139.1 259.9,150.1 237.2,150.1 226.7,139.5 226.7,128 244.9,128 244.9,133.6 
			252.5,133.6 252.5,124.7 234.6,124.7 226.3,116.1 226.3,98.1 237.2,87.4 260.5,87.4 270.4,97.4 270.4,107.8 253,107.8 253,103.7 
			244.9,103.7 244.9,109.7 263.1,109.7 		"/>
	</g>
	<g>
		<g>
			<polygon class="st1" points="60.8,98.5 60.8,114.7 57.7,118 60.8,121.1 60.8,139 49.4,150.1 11.4,150.1 7.2,145.8 15.8,133.6 
				15.8,103.7 16.3,103.5 11.4,87.4 50,87.4 			"/>
		</g>
		<g>
			<polygon class="st1" points="8.3,145.4 16.2,134.1 16.2,102.7 11.7,102.7 11.7,87.7 49.2,87.8 60.2,98.7 60.2,114.4 56.8,118.1 
				60.2,121.4 60.2,129.7 59.6,129.6 59.3,139.6 49.4,149.2 12.1,149.2 			"/>
		</g>
		<g>
			<polygon class="st4" points="56.6,94.1 56.6,110.4 53.7,113.5 56.6,116.6 56.6,134.7 45.2,145.8 7.2,145.8 7.2,129.3 11.6,129.3 
				11.6,99.4 7.2,99.4 7.2,83 45.8,83 			"/>
			<polygon class="st0" points="52.3,97 42.5,87.3 11.4,87.3 11.4,95.1 15.9,95.1 15.9,133.6 11.4,133.6 11.4,141.5 42,141.5 
				52.3,131.6 52.3,118.7 45.9,113.7 52.3,108.7 			"/>
			<polygon class="st4" points="38.5,95.1 42,97.7 42,107.7 38.7,109.9 26,109.9 26,95.1 			"/>
			<polygon class="st4" points="38.4,117.6 42,120.3 42,130.8 38.1,133.6 26,133.6 26,117.6 			"/>
			<rect x="30.3" y="99.4" class="st1" width="7.4" height="6.2"/>
			<rect x="30.3" y="121.9" class="st1" width="7.4" height="7.4"/>
		</g>
		<g>
			<polygon class="st1" points="110.4,87.4 110.4,107.5 93.4,107.5 93.5,103.7 85.5,103.7 92,101.6 100.3,110.4 100.3,126.4 
				85.5,126.4 85.5,133.6 93.5,133.6 106.2,124.8 110.4,129.1 110.4,150.1 62.3,150.1 58.1,145.8 68.4,141.7 66.6,103.7 69.2,104.5 
				106.2,83 			"/>
		</g>
		<polygon class="st1" points="95.8,106.9 99.4,110.8 99.4,125.5 84.6,125.5 84.6,134.5 94.3,134.5 106.1,126 109.5,129.5 
			109.5,149.2 62.7,149.2 58.8,145.3 67.4,134.4 67.4,103 63.2,103 105.6,83.7 109.5,87.7 109.5,106.6 95.7,106.6 		"/>
		<g>
			<polygon class="st4" points="106.2,83 106.2,103.1 89.3,103.1 89.3,99.4 81.3,99.4 81.3,106.1 96.1,106.1 96.1,122.1 81.3,122.1 
				81.3,129.3 89.3,129.3 89.3,124.8 106.2,124.8 106.2,145.8 58.1,145.8 58.1,129.3 62.4,129.3 62.4,99.4 58.1,99.4 58.1,83 			"/>
			<polygon class="st0" points="101.9,87.3 62.4,87.3 62.4,95.1 66.7,95.1 66.7,133.6 62.4,133.6 62.4,141.5 101.9,141.5 101.9,129 
				93.6,129 93.6,133.6 77,133.6 77,117.8 91.8,117.8 91.8,110.3 77,110.3 77,95.1 93.6,95.1 93.6,98.9 101.9,98.9 			"/>
		</g>
		<rect x="130" y="119" class="st0" width="18.6" height="21.1"/>
		<rect x="187.1" y="119" class="st0" width="18.6" height="21.1"/>
		<rect x="237.1" y="121.1" class="st0" width="18.6" height="21.1"/>
		<rect x="187.1" y="119" class="st0" width="18.6" height="21.1"/>
		<rect x="237" y="121.1" class="st0" width="18.6" height="21.1"/>
		<g>
			<polygon class="st1" points="150.2,87.4 163.7,131.3 165.8,129.3 170,133.7 170,150.1 143.7,150.1 139.7,145.8 147.7,134.3 
				146.6,130.7 134.6,130.7 133.5,134.3 137.4,134.3 144.7,150.1 111.9,150.1 107.7,145.8 117,133.7 146,83 			"/>
		</g>
		<g>
			<polygon class="st1" points="149.4,87.8 163.7,134.4 165.4,130.2 169.1,134 169.1,149.2 140.7,149.2 136.6,141.1 149.2,135.1 
				147.4,129.8 133.8,129.8 132.2,135.1 136.4,135.1 143.6,149.2 112.2,149.2 108.4,145.2 118.2,134.6 145.7,84 			"/>
		</g>
		<rect x="130" y="119" class="st1" width="18.6" height="21.1"/>
		<g>
			<polygon class="st4" points="146,83 160.2,129.3 165.8,129.3 165.8,145.8 139.5,145.8 139.5,130 143.5,130 142.4,126.4 
				130.4,126.4 129.3,130 133.2,130 133.2,145.8 107.7,145.8 107.7,129.3 112.8,129.3 128.2,83 			"/>
			<polygon class="st0" points="142.8,87.3 131.3,87.3 116,133.6 111.9,133.6 111.9,141.5 128.9,141.5 128.9,133.6 123.5,133.6 
				127.5,122.1 145.4,122.1 149.2,133.5 143.7,133.5 143.7,141.5 161.5,141.5 161.5,133.6 157,133.6 			"/>
			<polygon class="st4" points="137.1,94.1 144.4,117.5 128.5,117.5 136.1,94.1 			"/>
			<polygon class="st1" points="136.6,106.7 134.4,113.2 138.6,113.2 			"/>
		</g>
		<g>
			<polygon class="st0" points="220.7,130.2 225,134.5 225,149.3 201.3,149.3 193.4,140.7 203.3,135.4 198.9,125.8 193.5,125.8 
				193.5,135.4 196.8,135.4 202.8,149.3 172.5,149.3 168.2,144.9 177.1,134.5 177.1,103.1 172.5,103.1 172.5,88.1 209.4,88.3 
				219.6,98.6 219.6,115.5 213.7,121.5 218.7,131.6 			"/>
		</g>
		<rect x="187.1" y="119" class="st0" width="18.6" height="21.1"/>
		<rect x="237.1" y="121.1" class="st0" width="18.6" height="21.1"/>
		<polygon class="st1" points="221.3,129.3 225.5,133.6 225.6,150.1 200.5,150.1 192.2,141.2 201.9,134.7 198.3,126.7 194.2,126.7 
			194.2,134.7 197.5,134.7 203.5,150.1 171.9,150.1 167.5,145.8 176.2,133.8 176.2,103.9 174.2,103.5 171.7,87.5 209.8,87.3 
			220.4,98.1 220.5,116 214.8,121.6 219.4,131.5 		"/>
		<polygon class="st1" points="271.1,118 271.1,139.1 259.9,150.1 237.2,150.1 226.8,139.5 226.7,128 244.8,128 244.8,133.7 
			252.5,133.7 252.5,124.7 234.6,124.7 226.2,116.1 226.2,98.1 237.1,87.4 260.5,87.4 270.3,97.4 270.3,107.8 252.9,107.8 
			252.9,103.7 244.8,103.7 244.8,109.8 263.1,109.8 		"/>
		<polygon class="st1" points="271.1,118 271.1,139.1 259.9,150.1 237.2,150.1 226.8,139.5 226.7,128 244.8,128 244.8,133.7 
			252.5,133.7 252.5,124.7 234.6,124.7 226.2,116.1 226.2,98.1 237.1,87.4 260.5,87.3 270.3,97.3 270.3,107.8 252.9,107.8 
			252.9,103.7 244.8,103.7 242.6,107.5 260.9,107.5 		"/>
		<path class="st1" d="M220.6,130l4,4.1l0.1,15.1l-23.6,0l-7.8-8.5l9.9-5.3l-4.4-9.6h-5.4v9.6h3.4l6,13.8l-30.5,0l-4.3-4.3l9.1-10.4
			v-31.4h-4.6V88.1l36.9,0.1l10.2,10.3l0,17.1l-5.8,5.9l4.8,10.3C218.5,131.9,220.6,130,220.6,130z"/>
		<polygon class="st1" points="270.2,118.4 270.2,138.8 259.6,149.2 237.6,149.2 227.4,139 227.5,128.9 244.2,128.9 244.2,134.4 
			253.4,134.4 253.4,123.8 234.9,123.8 227.1,115.7 227.1,98.5 237.7,88 259.9,88 269.5,97.7 269.5,106.9 253.8,106.9 253.8,102.9 
			244,102.9 244,110.5 262.4,110.3 		"/>
		<rect x="187.1" y="119" class="st1" width="18.6" height="21.1"/>
		<rect x="237" y="121.1" class="st1" width="18.6" height="21.1"/>
		<rect x="240.4" y="90.3" class="st1" width="18.6" height="21.1"/>
		<polygon class="st4" points="221.3,129.3 221.3,145.8 196.3,145.8 196.3,130.2 197.7,130.2 194,122.3 190,122.3 190,130.2 
			193.3,130.2 193.3,145.8 167.5,145.8 167.5,129.3 171.9,129.3 171.9,99.4 167.5,99.4 167.5,83 205.6,83 216.3,93.8 216.3,111.4 
			210.4,117.3 216,129.3 		"/>
		<polygon class="st0" points="217.1,133.5 213.3,133.5 205.3,116.4 212,109.6 212,95.5 203.8,87.2 171.8,87.2 171.8,95.1 
			176.2,95.1 176.2,133.5 171.8,133.5 171.8,141.5 189,141.5 189,133.5 185.7,133.5 185.7,118 196.9,118 204.2,133.5 200.6,133.5 
			200.6,141.5 217.1,141.5 		"/>
		<polygon class="st4" points="202.3,98.5 202.3,106.1 198.4,110.1 186.4,110.1 186.4,95.1 198.8,95.1 		"/>
		<rect x="190.7" y="99.3" class="st1" width="7.4" height="6.5"/>
		<polygon class="st4" points="266.9,113.7 266.9,134.8 255.7,145.8 232.9,145.8 222.5,135.1 222.5,123.7 240.6,123.7 240.6,129.3 
			248.3,129.3 248.3,120.4 230.4,120.4 222,111.7 222,93.7 232.9,83 256.3,83 266.1,93.1 266.1,103.4 248.7,103.4 248.7,99.4 
			240.6,99.4 240.6,105.4 258.9,105.4 		"/>
		<polygon class="st0" points="262.6,115.4 257.1,109.7 238.5,109.7 236.4,107.5 236.4,98.6 240,95.1 249.7,95.1 253,98.6 253,99.2 
			262.7,99.2 262.6,95.6 254.4,87.3 234.7,87.3 226.3,95.6 226.3,110 232.2,116.1 250.6,116.1 252.5,118.3 252.5,129.9 248.8,133.6 
			239.9,133.6 236.4,129.9 236.4,127.9 226.8,127.9 226.8,133.4 234.8,141.5 253.9,141.5 262.6,133.1 		"/>
	</g>
</g>
</svg>
